<?xml version="1.0" encoding="UTF-8" standalone="no"?>
<svg
   xmlns:dc="http://purl.org/dc/elements/1.1/"
   xmlns:cc="http://creativecommons.org/ns#"
   xmlns:rdf="http://www.w3.org/1999/02/22-rdf-syntax-ns#"
   xmlns:svg="http://www.w3.org/2000/svg"
   xmlns="http://www.w3.org/2000/svg"
   xmlns:sodipodi="http://sodipodi.sourceforge.net/DTD/sodipodi-0.dtd"
   xmlns:inkscape="http://www.inkscape.org/namespaces/inkscape"
   inkscape:version="1.0 (4035a4fb49, 2020-05-01)"
   sodipodi:docname="practice.svg"
   version="1.1"
   viewBox="0 0 256 256"
   data-name="Layer 1"
   id="Layer_1">
  <metadata
     id="metadata37">
    <rdf:RDF>
      <cc:Work
         rdf:about="">
        <dc:format>image/svg+xml</dc:format>
        <dc:type
           rdf:resource="http://purl.org/dc/dcmitype/StillImage" />
      </cc:Work>
    </rdf:RDF>
  </metadata>
  <sodipodi:namedview
     inkscape:current-layer="Layer_1"
     inkscape:window-maximized="1"
     inkscape:window-y="-8"
     inkscape:window-x="-8"
     inkscape:cy="133.13899"
     inkscape:cx="59.939718"
     inkscape:zoom="2.3367669"
     showgrid="false"
     id="namedview35"
     inkscape:window-height="1012"
     inkscape:window-width="1920"
     inkscape:pageshadow="2"
     inkscape:pageopacity="0"
     guidetolerance="10"
     gridtolerance="10"
     objecttolerance="10"
     borderopacity="1"
     bordercolor="#666666"
     pagecolor="#ffffff" />
  <defs
     id="defs4">
    <style
       id="style2">.cls-1{fill:#effafe;}.cls-2{fill:#40bdff;}.cls-3{fill:#e4ebed;}.cls-4{fill:#2197f7;}.cls-5{fill:#263238;}.cls-6{fill:#fd0;}</style>
  </defs>
  <title
     id="title6">laptop job seeker employee unemployee work_1</title>
  <path
     style="fill:#f9f9f9"
     id="path8"
     d="M58.92,143.62l-.38.73H205.47l-.38-.73a68.84,68.84,0,0,0-61.18-37.08H120.1A68.84,68.84,0,0,0,58.92,143.62Z"
     class="cls-1" />
  <path
     style="fill:#f9f9f9"
     id="path10"
     d="M220.19,148.35H43.81A8,8,0,0,0,36,157.89l13.57,69.34a8,8,0,0,0,7.85,6.46H206.63a8,8,0,0,0,7.85-6.46L228,157.89A8,8,0,0,0,220.19,148.35Z"
     class="cls-2" />
  <path
     style="fill:#f9f9f9"
     id="path12"
     d="M136.66,102.54h0a45.4,45.4,0,1,0-9.31,0Z"
     class="cls-1" />
  <path
     style="fill:#f9f9f9"
     id="path14"
     d="M205.08,143.62a68.84,68.84,0,0,0-61.18-37.08h-10a68.84,68.84,0,0,1,61.18,37.08l.38.73h10Z"
     class="cls-3" />
  <path
     style="fill:#f9f9f9"
     id="path16"
     d="M220.19,148.35h-10a8,8,0,0,1,7.85,9.54l-13.57,69.35a8,8,0,0,1-7.85,6.46h10a8,8,0,0,0,7.85-6.46L228,157.89A8,8,0,0,0,220.19,148.35Z"
     class="cls-4" />
  <path
     style="fill:#f9f9f9"
     id="path18"
     d="M132,12a45.64,45.64,0,0,0-5,.28,45.38,45.38,0,0,1,0,90.21l.36,0h9.31A45.39,45.39,0,0,0,132,12Z"
     class="cls-3" />
  <path
     style="fill:#f2f2f2"
     id="path20"
     d="M49.78,143.85h-10a12.5,12.5,0,0,0-12.27,14.9L41.11,228.1a12.53,12.53,0,0,0,12.27,10.1H202.63a12.52,12.52,0,0,0,12.27-10.1l13.57-69.34a12.5,12.5,0,0,0-12.27-14.9h-10A73.71,73.71,0,0,0,149,102.62a49.89,49.89,0,1,0-42,0A73.7,73.7,0,0,0,49.78,143.85Zm166.41,5a7.5,7.5,0,0,1,7.36,8.94L210,227.14a7.51,7.51,0,0,1-7.36,6.06H53.37A7.51,7.51,0,0,1,46,227.14L32.45,157.79a7.5,7.5,0,0,1,7.36-8.94H216.19ZM83.11,57.39A44.89,44.89,0,1,1,132.63,102h-9.26A45,45,0,0,1,83.11,57.39Zm33,49.65H139.9a68.67,68.67,0,0,1,60.74,36.81H55.36A68.67,68.67,0,0,1,116.1,107Z"
     class="cls-5" />
  <path
     style="fill:#f2f2f2"
     id="path22"
     d="M228.35,243.5H27.65a2.5,2.5,0,0,0,0,5h200.7a2.5,2.5,0,1,0,0-5Z"
     class="cls-5" />
  <path
     style="fill:#f9f9f9"
     id="path24"
     d="M78.15,12.19v4h-4a1,1,0,0,0,0,2h4v4a1,1,0,0,0,2,0v-4h4a1,1,0,0,0,0-2h-4v-4a1,1,0,1,0-2,0Z"
     class="cls-6" />
  <path
     style="fill:#f9f9f9"
     id="path26"
     d="M226,118.39v4h-4a1,1,0,0,0,0,2h4v4a1,1,0,0,0,2,0v-4h4a1,1,0,0,0,0-2h-4v-4a1,1,0,0,0-2,0Z"
     class="cls-6" />
  <path
     style="fill:#f9f9f9"
     id="path28"
     d="M43,101.54v4H39a1,1,0,0,0,0,2h4v4a1,1,0,1,0,2,0v-4h4a1,1,0,1,0,0-2H45v-4a1,1,0,0,0-2,0Z"
     class="cls-6" />
  <path
     style="fill:#f9f9f9"
     id="path30"
     d="M30.54,48a6,6,0,1,1-6-6A6,6,0,0,1,30.54,48Zm-10,0a4,4,0,1,0,4-4A4,4,0,0,0,20.54,48Z"
     class="cls-2" />
  <path
     style="fill:#f9f9f9"
     id="path32"
     d="M238.94,197.29a6,6,0,1,1-6-6A6,6,0,0,1,238.94,197.29Zm-10,0a4,4,0,1,0,4-4A4,4,0,0,0,228.94,197.29Z"
     class="cls-2" />
</svg>
